<?xml version="1.0" encoding="iso-8859-1"?>
<!-- Uploaded to: SVG Repo, www.svgrepo.com, Transformed by: SVG Repo Tools -->
<svg version="1.1" id="Layer_1" xmlns="http://www.w3.org/2000/svg" xmlns:xlink="http://www.w3.org/1999/xlink" 
	 viewBox="0 0 511.999 511.999" xml:space="preserve">
<rect x="107.872" y="337.754" style="fill:#ADABA6;" width="157.261" height="58.286"/>
<polygon style="fill:#9E9A92;" points="168.807,337.758 115.547,337.758 115.547,396.044 213.476,396.044 "/>
<polygon style="fill:#52C6EB;" points="73.844,128.32 114.193,128.32 114.193,273.576 52.484,273.576 "/>
<path style="fill:#CCC3A8;" d="M395.985,91.983V61.775c0-9.438-7.652-17.089-17.089-17.089h-3.798
	c-9.437,0-17.087,7.651-17.087,17.089v316.523c5.984,4.727,10.862,10.789,14.171,17.747h23.802V117.966"/>
<g>
	<rect x="395.989" y="295.413" style="fill:#DFDBCC;" width="43.619" height="100.629"/>
	<rect x="358.011" y="157.444" style="fill:#DFDBCC;" width="37.978" height="117.399"/>
</g>
<rect x="174.009" y="305.99" style="fill:#66635D;" width="66.451" height="31.773"/>
<path style="fill:#7C7A75;" d="M174.005,337.872v-0.115v-13.246v-9.354v-13.247v-12.997v-13.248v-9.353v-13.247v-49.19
	c0-7.813-6.334-14.148-14.148-14.148h-3.476c-7.813,0-14.148,6.335-14.148,14.148v49.19v13.247v9.353v13.247v12.997v13.247v9.354
	v13.246v0.115h31.772V337.872z"/>
<path style="fill:#DFDBCC;" d="M312.614,295.411V310.6v43.926v15.19c4.59-1.398,9.46-2.154,14.507-2.154
	c11.667,0,22.393,4.019,30.888,10.734v-15.189V310.6v-15.189L312.614,295.411L312.614,295.411z"/>
<path style="fill:#FFB92E;" d="M57.995,367.563c27.545,0,49.875,22.331,49.875,49.875c0,6.894-1.398,13.459-3.927,19.43h177.231
	c-2.529-5.972-3.927-12.536-3.927-19.43c0-22.499,14.899-41.511,35.367-47.724v-79.051c0-9.438-7.652-17.088-17.089-17.088H240.46
	v122.468H179.7l-65.508-84.493v-37.975H52.483c-9.438,0-17.09,7.65-17.09,17.088v82.319
	C42.181,369.526,49.857,367.563,57.995,367.563z"/>
<rect x="179.704" y="396.042" style="fill:#7C7A75;" width="60.756" height="40.824"/>
<path style="fill:#FFB92E;" d="M224.322,128.32h30.889c7.815,0,14.148-6.333,14.148-14.148v-3.476
	c0-7.813-6.333-14.148-14.148-14.148h-49.189h-13.247h-9.354h-13.247h-12.996h-13.247h-9.353h-13.247h-49.19
	c-7.813,0-14.148,6.335-14.148,14.148v3.476c0,7.814,6.334,14.148,14.148,14.148"/>
<path style="fill:#7C7A75;" d="M107.87,417.438c0,27.548-22.33,49.875-49.875,49.875S8.12,444.987,8.12,417.438
	c0-27.544,22.33-49.875,49.875-49.875C85.541,367.563,107.87,389.894,107.87,417.438z"/>
<circle style="fill:#CCC3A8;" cx="57.996" cy="417.435" r="18.459"/>
<path style="fill:#7C7A75;" d="M376.997,417.438c0,27.548-22.329,49.875-49.874,49.875c-27.545,0-49.874-22.327-49.874-49.875
	c0-27.544,22.329-49.875,49.874-49.875C354.668,367.563,376.997,389.894,376.997,417.438z"/>
<circle style="fill:#CCC3A8;" cx="327.124" cy="417.435" r="18.459"/>
<path style="fill:#C9B585;" d="M382.874,91.983V61.775c0-5.962,3.057-11.206,7.687-14.263c-2.698-1.782-5.927-2.826-9.403-2.826
	h-3.798c-9.437,0-17.087,7.651-17.087,17.089v316.523c5.984,4.727,10.862,10.789,14.171,17.747h8.429V117.966L382.874,91.983
	L382.874,91.983z"/>
<rect x="360.273" y="157.444" style="fill:#DDD3B1;" width="22.601" height="117.399"/>
<path style="fill:#EF9A1D;" d="M260.272,273.576c-4.773,0.563-12.135,3.481-12.135,16.166v106.302v40.824h21.652v-67.154v-79.051
	c0-9.438,7.652-17.088,17.089-17.088L260.272,273.576L260.272,273.576z"/>
<polygon style="fill:#3EACC6;" points="81.521,122.658 60.161,274.846 81.813,274.846 103.173,122.658 "/>
<g>
	<path style="fill:#EF9A1D;" d="M87.411,114.172v-3.476c0-7.813,6.334-14.148,14.148-14.148H79.819
		c-7.813,0-14.148,6.335-14.148,14.148v3.476c0,7.814,6.334,14.148,14.148,14.148h21.74
		C93.745,128.32,87.411,121.987,87.411,114.172z"/>
	<path style="fill:#EF9A1D;" d="M64.723,290.664c0-9.438,7.652-17.088,17.09-17.088H60.161c-9.438,0-17.09,7.65-17.09,17.088v82.319
		c6.521-3.321,13.868-5.245,21.652-5.391V290.664z"/>
</g>
<g>
	<path style="fill:#6B6861;" d="M37.449,417.438c0-23.825,16.711-43.737,39.049-48.684c-3.487-0.772-7.106-1.192-10.826-1.192
		c-27.545,0-49.875,22.331-49.875,49.875c0,27.548,22.33,49.875,49.875,49.875c3.72,0,7.339-0.42,10.826-1.192
		C54.16,461.176,37.449,441.267,37.449,417.438z"/>
	<path style="fill:#6B6861;" d="M306.577,417.438c0-23.825,16.71-43.737,39.048-48.684c-3.488-0.772-7.106-1.192-10.826-1.192
		c-27.545,0-49.874,22.331-49.874,49.875c0,27.548,22.329,49.875,49.874,49.875c3.72,0,7.338-0.42,10.826-1.192
		C323.287,461.176,306.577,441.267,306.577,417.438z"/>
	<rect x="187.379" y="396.042" style="fill:#6B6861;" width="21.652" height="40.824"/>
</g>
<path style="fill:#FFB92E;" d="M179.7,436.868v-40.824l-65.508-84.493v-37.975H52.483c-9.438,0-17.09,7.65-17.09,17.088v82.319
	c6.787-3.457,14.462-5.421,22.601-5.421c27.545,0,49.875,22.331,49.875,49.875c0,6.894-1.398,13.459-3.927,19.43H179.7V436.868z"/>
<g>
	<path style="fill:#231F20;" d="M503.88,409.319h-56.159v-13.275V295.411c0-4.485-3.634-8.12-8.12-8.12h-35.498v-12.446V157.449
		v-39.483c0-4.485-3.634-8.12-8.12-8.12c-4.484,0-8.12,3.634-8.12,8.12v31.363H366.13V61.775c0-4.945,4.023-8.969,8.967-8.969h3.798
		c4.945,0,8.969,4.024,8.969,8.969v30.208c0,4.485,3.635,8.12,8.12,8.12c4.485,0,8.12-3.634,8.12-8.12V61.775
		c0-13.901-11.308-25.209-25.209-25.209h-3.798c-13.9,0-25.207,11.308-25.207,25.209v95.674v117.397v12.446h-29.389
		c-1.654-12.309-12.221-21.835-24.977-21.835h-4.122L236.593,136.44h18.618c12.279,0,22.267-9.989,22.267-22.267v-3.476
		c0-12.279-9.989-22.267-22.267-22.267H72.142c-12.278,0-22.267,9.989-22.267,22.267v3.476c0,9.643,6.172,17.849,14.764,20.939
		L45.317,266.5c-10.419,3.095-18.043,12.754-18.043,24.164v77.617C10.911,378.545,0,396.738,0,417.438
		c0,31.978,26.016,57.995,57.995,57.995c22.014,0,41.2-12.33,51.022-30.445H179.7h60.76h35.641
		c9.82,18.115,29.007,30.445,51.021,30.445c31.978,0,57.994-26.016,57.994-57.995c0-4.569-0.548-9.008-1.55-13.275h12.419h35.498
		v13.275c0,4.485,3.634,8.12,8.12,8.12h64.278c4.485,0,8.12-3.634,8.12-8.12S508.365,409.319,503.88,409.319z M387.865,165.568
		v101.158H366.13V165.568H387.865z M349.891,364.073c-7.118-3.052-14.808-4.629-22.769-4.629c-1.043,0-2.078,0.03-3.106,0.086
		c-0.281,0.015-0.561,0.045-0.841,0.064c-0.754,0.051-1.506,0.106-2.252,0.186c-0.063,0.007-0.126,0.009-0.188,0.015v-56.264h29.157
		v60.542H349.891z M66.114,110.696c0-3.324,2.704-6.028,6.028-6.028H255.21c3.324,0,6.028,2.704,6.028,6.028v3.476
		c0,3.324-2.704,6.028-6.028,6.028H224.32h-24.226c-4.484,0-8.12,3.634-8.12,8.12s3.635,8.12,8.12,8.12h18.853l54.811,129.017
		H240.46c-4.484,0-8.12,3.634-8.12,8.12v24.291h-50.216v-93.988c0-12.279-9.989-22.267-22.267-22.267h-3.476
		c-12.278,0-22.267,9.989-22.267,22.267v120.115l-11.799-15.219v-35.175c0-0.008,0.001-0.014,0.001-0.021V136.44h50.717
		c4.484,0,8.12-3.634,8.12-8.12s-3.635-8.12-8.12-8.12h-58.837H73.846c-0.284,0-0.563,0.018-0.84,0.047
		c-0.284-0.03-0.571-0.047-0.863-0.047c-3.324,0-6.028-2.704-6.028-6.028v-3.476H66.114z M106.074,265.456H61.886L80.857,136.44
		h25.216V265.456z M232.339,329.638h-50.215v-15.533h50.215V329.638z M165.885,305.986v23.767h-15.533V203.877
		c0-3.324,2.704-6.028,6.028-6.028h3.476c3.324,0,6.028,2.704,6.028,6.028v102.109H165.885z M183.68,387.924l-32.511-41.932h22.836
		h58.336v41.932H183.68z M57.995,459.194c-23.024,0-41.755-18.73-41.755-41.755c0-16.351,9.452-30.529,23.174-37.378
		c0.476-0.237,0.956-0.462,1.438-0.681c0.221-0.1,0.44-0.204,0.661-0.3c0.533-0.231,1.07-0.443,1.609-0.65
		c0.266-0.102,0.53-0.205,0.799-0.301c0.581-0.209,1.165-0.407,1.754-0.59c0.385-0.119,0.777-0.224,1.167-0.332
		c0.322-0.09,0.643-0.181,0.967-0.263c0.412-0.104,0.829-0.197,1.246-0.288c0.316-0.069,0.633-0.136,0.952-0.198
		c0.409-0.079,0.821-0.154,1.234-0.221c0.351-0.057,0.703-0.107,1.056-0.156c0.382-0.052,0.765-0.105,1.151-0.146
		c0.436-0.047,0.875-0.081,1.313-0.115c0.311-0.024,0.62-0.054,0.932-0.071c0.763-0.041,1.53-0.066,2.302-0.066
		c23.024,0,41.755,18.731,41.755,41.755S81.019,459.194,57.995,459.194z M115.294,426.403c0.009-0.056,0.021-0.11,0.028-0.167
		c0.13-0.853,0.236-1.712,0.328-2.572c0.012-0.114,0.03-0.226,0.041-0.341c0.081-0.81,0.139-1.624,0.186-2.44
		c0.01-0.168,0.028-0.332,0.037-0.5c0.049-0.978,0.075-1.958,0.075-2.945c0-31.978-26.016-57.995-57.995-57.995
		c-1.124,0-2.239,0.04-3.346,0.104c-0.414,0.023-0.824,0.062-1.235,0.094c-0.683,0.054-1.363,0.114-2.04,0.192
		c-0.5,0.056-0.999,0.121-1.497,0.191c-0.584,0.082-1.164,0.176-1.742,0.276c-0.524,0.09-1.048,0.176-1.569,0.28
		c-0.62,0.124-1.232,0.27-1.845,0.414c-0.402,0.094-0.809,0.168-1.208,0.271v-70.601c0-4.945,4.022-8.967,8.967-8.968
		c0.004,0,0.009,0.001,0.013,0.001c0.008,0,0.015-0.001,0.023-0.001h53.556v29.855c0,1.801,0.599,3.551,1.703,4.976l20.403,26.315
		c0.001,0.002,0.002,0.004,0.004,0.005l43.399,55.976v29.926h-56.691C115.044,427.971,115.173,427.187,115.294,426.403z
		 M187.82,428.748v-24.585h44.52v24.585L187.82,428.748L187.82,428.748z M270.227,428.748H248.58v-32.705v-58.171v-56.177h37.425
		c0.01,0,0.02,0.002,0.03,0.002c0.015,0,0.029-0.002,0.044-0.002h9.447c4.945,0,8.969,4.023,8.969,8.968v4.747v68.612
		c-19.551,8.22-32.908,26.285-35.055,47.403c-0.01,0.094-0.017,0.189-0.026,0.284c-0.076,0.785-0.136,1.574-0.181,2.368
		c-0.012,0.214-0.026,0.428-0.036,0.643c-0.041,0.902-0.069,1.806-0.069,2.717c0,0.985,0.026,1.967,0.075,2.945
		c0.009,0.168,0.026,0.332,0.037,0.5c0.048,0.816,0.105,1.63,0.186,2.441c0.012,0.114,0.029,0.225,0.041,0.339
		c0.092,0.862,0.198,1.721,0.328,2.576c0.008,0.053,0.018,0.105,0.027,0.158C269.944,427.183,270.073,427.969,270.227,428.748z
		 M327.121,459.194c-20.849,0-38.176-15.36-41.264-35.358c-0.003-0.02-0.007-0.038-0.01-0.057c-0.096-0.627-0.174-1.259-0.241-1.895
		c-0.008-0.07-0.018-0.141-0.025-0.211c-0.06-0.589-0.101-1.183-0.135-1.779c-0.007-0.114-0.018-0.227-0.025-0.341
		c-0.035-0.7-0.054-1.405-0.054-2.114c0-0.668,0.019-1.332,0.051-1.993c0.008-0.162,0.02-0.324,0.029-0.486
		c0.031-0.535,0.07-1.067,0.122-1.597c0.012-0.12,0.024-0.239,0.036-0.359c1.698-16.007,12.474-29.341,27.069-34.741
		c0.063-0.023,0.125-0.047,0.187-0.069c0.517-0.188,1.043-0.364,1.57-0.532c0.128-0.041,0.253-0.086,0.382-0.124
		c0.116-0.036,0.234-0.065,0.35-0.1c0.821-0.246,1.649-0.462,2.481-0.656c0.179-0.041,0.356-0.084,0.536-0.124
		c0.908-0.199,1.822-0.374,2.742-0.511c0.08-0.012,0.161-0.02,0.241-0.03c0.83-0.119,1.665-0.209,2.503-0.277
		c0.23-0.019,0.459-0.038,0.69-0.053c0.919-0.061,1.84-0.102,2.765-0.102c0.672,0,1.341,0.02,2.006,0.051
		c0.165,0.008,0.328,0.021,0.493,0.03c0.526,0.031,1.05,0.069,1.572,0.12c0.14,0.013,0.278,0.028,0.417,0.043
		c0.595,0.064,1.189,0.138,1.777,0.226c0.045,0.007,0.091,0.013,0.136,0.021c6.185,0.956,11.927,3.273,16.907,6.635
		c0.03,0.021,0.06,0.042,0.09,0.063c0.486,0.33,0.964,0.671,1.436,1.021c0.117,0.087,0.232,0.175,0.349,0.264
		c0.345,0.262,0.684,0.53,1.021,0.802c0.324,0.262,0.642,0.532,0.958,0.802c0.25,0.215,0.503,0.428,0.748,0.648
		c0.346,0.312,0.683,0.635,1.02,0.959c0.23,0.221,0.462,0.438,0.687,0.666c0.46,0.463,0.909,0.936,1.347,1.419
		c0.224,0.248,0.437,0.505,0.656,0.757c0.26,0.301,0.52,0.603,0.771,0.912c0.237,0.29,0.467,0.587,0.695,0.884
		c0.212,0.275,0.421,0.552,0.627,0.833c0.241,0.329,0.48,0.663,0.711,0.999c0.167,0.241,0.327,0.486,0.488,0.731
		c0.249,0.379,0.498,0.759,0.736,1.146c0.099,0.161,0.191,0.326,0.287,0.488c3.694,6.226,5.823,13.485,5.823,21.236
		C368.877,440.463,350.145,459.194,327.121,459.194z M375.191,385.026c-1.55-2.29-3.264-4.471-5.125-6.523
		c-0.025-0.027-0.05-0.054-0.074-0.081c-1.228-1.349-2.512-2.648-3.862-3.877v-79.134v-12.446h21.735v12.446v92.513h-10.822
		c-0.58-0.978-1.2-1.934-1.837-2.877C375.2,385.04,375.196,385.033,375.191,385.026z M404.104,387.924v-84.393h27.378v84.393
		H404.104z"/>
	<path style="fill:#231F20;" d="M327.121,390.865c-14.652,0-26.573,11.921-26.573,26.573s11.921,26.573,26.573,26.573
		c14.652,0,26.573-11.921,26.573-26.573S341.774,390.865,327.121,390.865z M327.121,427.772c-5.698,0-10.334-4.636-10.334-10.334
		s4.636-10.334,10.334-10.334s10.334,4.636,10.334,10.334S332.819,427.772,327.121,427.772z"/>
	<path style="fill:#231F20;" d="M57.995,390.865c-14.652,0-26.572,11.921-26.572,26.573s11.921,26.573,26.572,26.573
		c14.652,0,26.573-11.921,26.573-26.573S72.647,390.865,57.995,390.865z M57.995,427.772c-5.698,0-10.332-4.636-10.332-10.334
		s4.636-10.334,10.332-10.334c5.698,0,10.334,4.636,10.334,10.334S63.693,427.772,57.995,427.772z"/>
</g>
<g>
</g>
<g>
</g>
<g>
</g>
<g>
</g>
<g>
</g>
<g>
</g>
<g>
</g>
<g>
</g>
<g>
</g>
<g>
</g>
<g>
</g>
<g>
</g>
<g>
</g>
<g>
</g>
<g>
</g>
</svg>