<?xml version="1.0" encoding="iso-8859-1"?>
<!-- Uploaded to: SVG Repo, www.svgrepo.com, Transformed by: SVG Repo Tools -->
<svg version="1.1" id="Layer_1" xmlns="http://www.w3.org/2000/svg" xmlns:xlink="http://www.w3.org/1999/xlink" 
	 viewBox="0 0 512 512" xml:space="preserve">
<rect x="23.746" y="293.78" style="fill:#4BAF78;" width="176.505" height="179.793"/>
<polygon style="fill:#299956;" points="53.292,282.398 31.734,282.398 31.734,484.513 53.292,484.513 54.01,484.513 54.01,282.398 
	"/>
<polyline style="fill:#36A1CB;" points="200.261,208.988 200.261,473.577 489.136,473.577 489.136,208.988 "/>
<rect x="208.249" y="198.645" style="fill:#1D89BF;" width="21.558" height="285.868"/>
<polyline style="fill:#FFB92E;" points="144.874,106.178 140.164,8.084 83.848,8.084 71.585,263.443 152.427,263.443 
	146.119,132.092 "/>
<polygon style="fill:#EF9A1D;" points="91.832,9.162 79.569,264.521 102.072,264.521 114.336,9.162 "/>
<polygon style="fill:#E35F46;" points="80.68,74.049 143.332,74.049 141.875,43.711 82.137,43.711 "/>
<polygon style="fill:#CC3925;" points="88.663,75.127 111.168,75.127 112.624,44.789 90.121,44.789 "/>
<rect x="59.066" y="403.531" style="fill:#DFDBCC;" width="105.612" height="35.021"/>
<g>
	<rect x="59.066" y="368.511" style="fill:#BCBCBB;" width="105.612" height="35.02"/>
	<rect x="59.066" y="438.563" style="fill:#BCBCBB;" width="105.612" height="35.02"/>
</g>
<rect x="239.239" y="244.768" style="fill:#52C6EB;" width="53.043" height="38.52"/>
<rect x="239.239" y="283.281" style="fill:#8BD8F7;" width="53.043" height="38.52"/>
<rect x="239.239" y="321.805" style="fill:#52C6EB;" width="53.043" height="38.52"/>
<rect x="239.239" y="360.329" style="fill:#8BD8F7;" width="53.043" height="38.52"/>
<rect x="239.239" y="398.961" style="fill:#52C6EB;" width="53.043" height="38.52"/>
<rect x="292.282" y="244.768" style="fill:#8BD8F7;" width="53.043" height="38.52"/>
<rect x="292.282" y="283.281" style="fill:#52C6EB;" width="53.043" height="38.52"/>
<rect x="292.282" y="321.805" style="fill:#8BD8F7;" width="53.043" height="38.52"/>
<rect x="292.282" y="360.329" style="fill:#52C6EB;" width="53.043" height="38.52"/>
<rect x="292.282" y="398.961" style="fill:#8BD8F7;" width="53.043" height="38.52"/>
<rect x="345.325" y="244.768" style="fill:#52C6EB;" width="53.043" height="38.52"/>
<rect x="345.325" y="283.281" style="fill:#8BD8F7;" width="53.043" height="38.52"/>
<rect x="345.325" y="321.805" style="fill:#52C6EB;" width="53.043" height="38.52"/>
<rect x="345.325" y="360.329" style="fill:#8BD8F7;" width="53.043" height="38.52"/>
<rect x="345.325" y="398.961" style="fill:#52C6EB;" width="53.043" height="38.52"/>
<rect x="398.368" y="244.768" style="fill:#8BD8F7;" width="53.043" height="38.52"/>
<rect x="398.368" y="283.281" style="fill:#52C6EB;" width="53.043" height="38.52"/>
<rect x="398.368" y="321.805" style="fill:#8BD8F7;" width="53.043" height="38.52"/>
<rect x="398.368" y="360.329" style="fill:#52C6EB;" width="53.043" height="38.52"/>
<rect x="398.368" y="398.961" style="fill:#8BD8F7;" width="53.043" height="38.52"/>
<g>
	<path style="fill:#CCC3A8;" d="M446.787,503.916h43.619c7.461,0,13.509-6.048,13.509-13.51v-3.319
		c0-7.462-6.048-13.51-13.509-13.51h-81.2H102.795h-81.2c-7.461,0-13.51,6.048-13.51,13.51v3.319c0,7.462,6.049,13.51,13.51,13.51
		h81.2h316.113"/>
	<path style="fill:#CCC3A8;" d="M454.333,208.988h36.074c7.461,0,13.509-6.048,13.509-13.509v-3.32
		c0-7.462-6.048-13.509-13.509-13.509h-81.2H273.102h-81.199c-7.461,0-13.51,6.047-13.51,13.509v3.32
		c0,7.461,6.049,13.509,13.51,13.509h81.199h136.105h16.023"/>
	<path style="fill:#CCC3A8;" d="M200.26,263.443h-97.464h-81.2c-7.461,0-13.51,6.048-13.51,13.51v3.319
		c0,7.462,6.049,13.51,13.51,13.51h81.2h97.464V263.443z"/>
</g>
<g>
	<path style="fill:#C9B585;" d="M38.346,280.272v-3.319c0-7.462,6.048-13.51,13.51-13.51h-0.719H29.58
		c-7.461,0-13.51,6.048-13.51,13.51v3.319c0,7.462,6.048,13.51,13.51,13.51h21.558h0.719
		C44.394,293.782,38.346,287.734,38.346,280.272z"/>
	<path style="fill:#C9B585;" d="M38.345,490.405v-3.319c0-7.462,6.048-13.51,13.51-13.51H29.579c-7.461,0-13.51,6.048-13.51,13.51
		v3.319c0,7.462,6.048,13.51,13.51,13.51h22.277C44.393,503.916,38.345,497.868,38.345,490.405z"/>
</g>
<g>
	<g>
		<rect x="66.611" y="400.298" style="fill:#D8CEAD;" width="21.784" height="35.021"/>
	</g>
</g>
<g>
	<g>
		<polygon style="fill:#AFAFAE;" points="88.169,378.217 88.17,378.206 88.17,365.282 66.612,365.282 66.612,400.302 
			88.169,400.302 		"/>
	</g>
</g>
<g>
	<g>
		<rect x="66.611" y="435.329" style="fill:#AFAFAE;" width="21.784" height="35.02"/>
	</g>
</g>
<path style="fill:#C9B585;" d="M207.574,195.478v-3.319c0-7.462,6.048-13.51,13.51-13.51h-0.719h-21.558
	c-7.461,0-13.51,6.048-13.51,13.51v3.319c0,7.462,6.048,13.51,13.51,13.51h21.558h0.719
	C213.623,208.989,207.574,202.941,207.574,195.478z"/>
<g>
	<path style="fill:#231F20;" d="M59.066,345.342h105.612c4.465,0,8.084-3.618,8.084-8.084c0-4.465-3.62-8.084-8.084-8.084H59.066
		c-4.465,0-8.084,3.62-8.084,8.084C50.982,341.724,54.602,345.342,59.066,345.342z"/>
	<path style="fill:#231F20;" d="M239.237,445.564h53.041h53.044h53.044h53.042c4.466,0,8.084-3.62,8.084-8.084v-38.52
		c0-0.019-0.003-0.038-0.003-0.057s0.003-0.038,0.003-0.057v-38.52v-38.521v-38.52v-38.52c0-4.465-3.618-8.084-8.084-8.084h-53.042
		h-53.044h-53.044h-53.041c-4.465,0-8.084,3.62-8.084,8.084v38.52v38.52v38.52v38.52c0,0.019,0.003,0.038,0.003,0.057
		s-0.003,0.038-0.003,0.057v38.52C231.152,441.944,234.772,445.564,239.237,445.564z M247.321,368.409h36.873v22.351h-36.873
		V368.409z M247.321,329.89h36.873v22.351h-36.873V329.89z M443.325,352.241h-36.874V329.89h36.874L443.325,352.241L443.325,352.241
		z M390.283,390.762h-36.876V368.41h36.876V390.762z M337.239,390.762h-36.876V368.41h36.876V390.762z M406.451,368.409h36.874
		v22.351h-36.874L406.451,368.409L406.451,368.409z M390.283,352.241h-36.876V329.89h36.876V352.241z M337.239,352.241h-36.876
		V329.89h36.876V352.241z M443.325,313.721h-36.874V291.37h36.874L443.325,313.721L443.325,313.721z M390.283,313.721h-36.876
		V291.37h36.876V313.721z M337.239,313.721h-36.876V291.37h36.876V313.721z M284.194,313.721h-36.873V291.37h36.873V313.721z
		 M247.321,407.043h36.873v22.351h-36.873V407.043z M300.363,407.043h36.876v22.351h-36.876V407.043z M353.407,407.043h36.876
		v22.351h-36.876V407.043z M443.325,429.396h-36.874v-22.351h36.874L443.325,429.396L443.325,429.396z M443.325,275.202h-36.874
		V252.85h36.874L443.325,275.202L443.325,275.202z M390.283,275.202h-36.876V252.85h36.876V275.202z M337.239,275.202h-36.876
		V252.85h36.876V275.202z M247.321,252.849h36.873v22.351h-36.873V252.849z"/>
	<path style="fill:#231F20;" d="M512,195.478v-3.32c0-11.906-9.687-21.593-21.593-21.593H191.902
		c-11.908,0-21.595,9.687-21.595,21.593v3.32c0,11.906,9.687,21.593,21.595,21.593h0.275v38.286h-32.045l-5.938-123.655
		c-0.215-4.459-3.995-7.912-8.463-7.686c-4.459,0.215-7.901,4.002-7.686,8.463l5.901,122.879h-63.88l8.319-173.224h47.241
		l1.174,24.432c0.213,4.459,3.976,7.893,8.463,7.686c4.459-0.215,7.901-4.002,7.686-8.463l-2.742-57.105l-0.258-5.361v-0.001
		l-1.304-27.153h2.188c4.465,0,8.084-3.62,8.084-8.084S155.298,0,150.833,0h-10.67H83.848h-10.67c-4.465,0-8.084,3.62-8.084,8.084
		s3.62,8.084,8.084,8.084h2.188L74.062,43.32c0,0.001,0,0.002,0,0.003l-1.457,30.339v0.001l-8.726,181.695H21.596
		c-11.906,0-21.595,9.687-21.595,21.595v3.319c0,9.85,6.636,18.161,15.665,20.747v165.32C6.636,468.924,0,477.237,0,487.087v3.319
		C0,502.313,9.687,512,21.595,512h397.314c4.466,0,8.084-3.618,8.084-8.084s-3.618-8.084-8.084-8.084H21.595
		c-2.991,0-5.426-2.434-5.426-5.426v-3.319c0-2.991,2.434-5.426,5.426-5.426h2.156h35.295c0.008,0,0.015,0.001,0.023,0.001H164.68
		c0.008,0,0.015-0.001,0.023-0.001h35.538c0.008,0,0.015,0.001,0.023,0.001h288.874c0.008,0,0.015-0.001,0.023-0.001h1.249
		c2.991,0,5.425,2.435,5.425,5.426v3.319c0,2.992-2.434,5.426-5.425,5.426h-43.621c-4.466,0-8.084,3.618-8.084,8.084
		s3.618,8.084,8.084,8.084h43.619c11.906,0,21.593-9.687,21.593-21.595v-3.319c0-9.525-6.207-17.615-14.781-20.476V215.953
		C505.795,213.092,512,205.003,512,195.478z M89.161,65.965l0.68-14.17h44.327l0.68,14.17H89.161z M132.458,16.168l0.935,19.458
		H90.619l0.935-19.458H132.458z M425.229,217.072c4.466,0,8.084-3.62,8.084-8.084c0-4.465-3.618-8.084-8.084-8.084H191.902
		c-2.992,0-5.426-2.434-5.426-5.425v-3.32c0-2.991,2.434-5.425,5.426-5.425h298.505c2.991,0,5.425,2.434,5.425,5.425v3.32
		c0,2.991-2.434,5.425-5.425,5.425h-36.074c-4.466,0-8.084,3.62-8.084,8.084c0,4.465,3.618,8.084,8.084,8.084h26.718v248.42H208.345
		v-171.71v-76.711L425.229,217.072L425.229,217.072z M16.169,276.953c0-2.991,2.434-5.426,5.426-5.426h49.99h80.842h39.748v14.172
		H23.75h-2.155c-2.991,0-5.426-2.435-5.426-5.426C16.169,280.273,16.169,276.953,16.169,276.953z M31.835,301.867h160.342v163.625
		h-19.414v-26.934v-35.021v-35.02c0-4.466-3.62-8.084-8.084-8.084H59.066c-4.465,0-8.084,3.618-8.084,8.084v35.02v35.021v26.934
		H31.835V301.867z M67.151,411.62h89.444v18.852H67.151C67.151,430.472,67.151,411.62,67.151,411.62z M156.594,395.452H67.151V376.6
		h89.444V395.452z M67.151,465.492v-18.85h89.444v18.85H67.151z"/>
</g>
<g>
</g>
<g>
</g>
<g>
</g>
<g>
</g>
<g>
</g>
<g>
</g>
<g>
</g>
<g>
</g>
<g>
</g>
<g>
</g>
<g>
</g>
<g>
</g>
<g>
</g>
<g>
</g>
<g>
</g>
</svg>