<?xml version="1.0" encoding="iso-8859-1"?>
<!-- Uploaded to: SVG Repo, www.svgrepo.com, Transformed by: SVG Repo Tools -->
<svg version="1.1" id="Layer_1" xmlns="http://www.w3.org/2000/svg" xmlns:xlink="http://www.w3.org/1999/xlink" 
	 viewBox="0 0 511.999 511.999" xml:space="preserve">
<polyline style="fill:#7C7A75;" points="261.726,474.619 278.973,444.28 338.951,444.28 340.509,444.28 361.875,444.28 
	363.433,444.28 423.409,444.28 440.658,474.619 "/>
<path style="fill:#6B6861;" d="M292.637,483.488c-0.877-1.605-0.883-3.545-0.012-5.155l17.158-31.693
	c1.008-1.864,3.016-2.963,5.13-2.809l-24.23-1.76c-2.113-0.154-4.121,0.945-5.13,2.809l-17.158,31.693
	c-0.872,1.609-0.868,3.549,0.012,5.153c0.88,1.605,2.513,2.655,4.336,2.787l24.23,1.76
	C295.15,486.141,293.516,485.091,292.637,483.488z"/>
<path style="fill:#CCC3A8;" d="M410.138,473.577h37.388c7.461,0,13.509,6.048,13.509,13.509v3.32
	c0,7.461-6.048,13.509-13.509,13.509h-81.2h-32.352h-81.2c-7.461,0-13.509-6.048-13.509-13.509v-3.32
	c0-7.461,6.048-13.509,13.509-13.509h81.2h37.741h9.319"/>
<path style="fill:#C9B585;" d="M268.995,491.318v-3.32c0-7.461,6.048-13.509,13.509-13.509h-22.011
	c-7.461,0-13.509,6.048-13.509,13.509v3.32c0,7.461,6.048,13.509,13.509,13.509h22.011
	C275.044,504.828,268.995,498.779,268.995,491.318z"/>
<rect x="50.962" y="383.849" style="fill:#CE3B28;" width="73.696" height="23.918"/>
<path style="fill:#B22B20;" d="M78.702,395.745v-10.988H57.605v10.988c0,7.144,5.792,12.935,12.935,12.935h21.097
	C84.493,408.679,78.702,402.888,78.702,395.745z"/>
<rect x="50.962" y="339.602" style="fill:#E35F46;" width="73.696" height="44.248"/>
<path style="fill:#D8422E;" d="M91.637,340.507H70.54c-7.143,0-12.935,5.792-12.935,12.935v36.86h21.097v-36.86
	C78.702,346.298,84.493,340.507,91.637,340.507z"/>
<rect x="234.819" y="132.312" style="fill:#7C7A75;" width="73.696" height="44.248"/>
<path style="fill:#6B6861;" d="M263.637,164.536v-31.313c0-7.143,5.792-12.935,12.935-12.935h-21.095
	c-7.144,0-12.935,5.792-12.935,12.935v31.313c0,7.144,5.79,12.935,12.935,12.935h21.095
	C269.429,177.471,263.637,171.68,263.637,164.536z"/>
<path style="fill:#FFB92E;" d="M303.068,101.971h63.257h81.2c7.461,0,13.509,6.048,13.509,13.509v3.32
	c0,7.461-6.048,13.509-13.509,13.509h-81.2H147.217h-81.2c-7.461,0-13.51-6.048-13.51-13.509v-3.32
	c0-7.461,6.049-13.509,13.51-13.509h81.2h127.465"/>
<path style="fill:#EF9A1D;" d="M81.324,118.634v-3.32c0-7.461,6.048-13.509,13.509-13.509H73.737
	c-7.461,0-13.509,6.048-13.509,13.509v3.32c0,7.461,6.048,13.509,13.509,13.509h21.097
	C87.373,132.143,81.324,126.094,81.324,118.634z"/>
<path style="fill:#CCC3A8;" d="M348.489,8.084h3.32c7.461,0,13.509,6.048,13.509,13.509v9.137v12.466v1.898v2.635v4.603v1.898v2.637
	v9.829v2.638v1.897v4.603v2.637v1.898v12.466v9.136h-30.34v-9.136V80.369v-1.898v-2.637v-4.603v-1.897v-2.638v-9.829v-2.637v-1.898
	V47.73v-2.635v-1.898V30.731v-9.137C334.98,14.132,341.028,8.084,348.489,8.084z"/>
<g>
	<rect x="416.983" y="132.312" style="fill:#7C7A75;" width="30.539" height="44.248"/>
	<path style="fill:#7C7A75;" d="M101.32,132.309v9.137v12.467v9.136c0,7.461-6.048,13.509-13.509,13.509h-3.32
		c-7.461,0-13.509-6.048-13.509-13.509v-9.136v-12.467v-9.137C70.982,132.309,101.32,132.309,101.32,132.309z"/>
</g>
<path style="fill:#231F20;" d="M416.986,184.643h30.539c4.466,0,8.084-3.618,8.084-8.084v-37.75
	c7.91-3.208,13.509-10.961,13.509-20.009v-3.32c0-11.906-9.687-21.593-21.593-21.593h-11.953l-60.294-59.473
	c-0.569-0.562-1.203-1.018-1.874-1.376V21.593C373.404,9.687,363.716,0,351.81,0h-3.32c-11.243,0-20.497,8.641-21.494,19.631
	L84.94,93.887H66.017c-11.906,0-21.595,9.687-21.595,21.593v3.32c0,10.844,8.044,19.821,18.474,21.342v22.907
	c0,10.268,7.21,18.869,16.829,21.047v94.085c-7.282,3.142-12.396,10.388-12.396,18.81c0,3.68,0.99,7.128,2.696,10.115
	l-18.452,24.405h-0.61c-4.465,0-8.084,3.618-8.084,8.084v44.249v23.923c0,4.466,3.62,8.084,8.084,8.084h73.695
	c4.465,0,8.084-3.618,8.084-8.084v-23.923v-44.249c0-4.466-3.62-8.084-8.084-8.084h-0.61l-18.452-24.405
	c1.706-2.988,2.696-6.435,2.696-10.115c0-8.423-5.114-15.668-12.396-18.81v-95.123c7.108-2.882,12.332-9.439,13.322-17.306h117.521
	v10.806c0,4.466,3.62,8.084,8.084,8.084h65.611v51.31v103.642v95.558h-22.502c-2.907,0-5.592,1.561-7.029,4.09l-14.921,26.25h-3.207
	c-11.906,0-21.593,9.687-21.593,21.593v3.32c0,11.906,9.687,21.593,21.593,21.593h194.752c11.906,0,21.593-9.687,21.593-21.593
	v-3.32c0-11.906-9.687-21.593-21.593-21.593h-3.207l-14.925-26.25c-1.437-2.528-4.12-4.088-7.028-4.088h-22.501v-95.558V235.954
	v-95.56h9.036v36.164C408.902,181.024,412.522,184.643,416.986,184.643z M439.441,168.475h-14.37v-28.081h14.37V168.475z
	 M412.549,93.887h-39.145V55.274L412.549,93.887z M343.064,21.593c0-2.991,2.434-5.425,5.425-5.425h3.32
	c2.991,0,5.425,2.434,5.425,5.425v72.292h-14.17L343.064,21.593L343.064,21.593z M60.592,118.8v-3.32
	c0-2.991,2.434-5.425,5.426-5.425h20.105c0.009,0,0.017,0.002,0.026,0.002c0.01,0,0.019-0.002,0.028-0.002h188.507
	c4.465,0,8.084-3.618,8.084-8.084c0-4.466-3.618-8.084-8.084-8.084H140.068l186.829-57.315v57.315h-23.828
	c-4.466,0-8.084,3.618-8.084,8.084c0,4.466,3.618,8.084,8.084,8.084h31.912h30.338h82.207c2.991,0,5.425,2.434,5.425,5.425v3.32
	c0,2.991-2.434,5.425-5.425,5.425h-30.539h-25.205h-0.095c-0.004,0-0.008,0-0.012,0h-83.159h-73.696h-133.5H70.982h-4.965
	C63.026,124.225,60.592,121.791,60.592,118.8z M316.601,176.559V155.28l23.179,28.852l-23.179,28.852V176.559z M325.381,140.394
	h49.537l-24.768,30.83L325.381,140.394z M339.78,287.774l-23.179,28.851v-57.702L339.78,287.774z M325.381,244.038h49.537
	l-24.768,30.83L325.381,244.038z M350.15,300.682l24.768,30.83h-49.537L350.15,300.682z M374.918,347.68l-24.768,30.83
	l-24.768-30.83H374.918z M360.52,287.774l23.179-28.851v57.702L360.52,287.774z M325.381,227.869l24.769-30.83l24.769,30.83H325.381
	z M339.78,391.417l-23.179,28.851v-57.702L339.78,391.417z M350.149,404.325l24.768,30.829h-49.536L350.149,404.325z
	 M360.52,391.417l23.179-28.851v57.702L360.52,391.417z M360.52,184.131l23.179-28.852v57.703L360.52,184.131z M79.066,140.394
	h14.17v22.656c0,2.991-2.434,5.425-5.425,5.425h-3.32c-2.991,0-5.425-2.434-5.425-5.425V140.394z M92.123,296.991
	c0,1.416-0.695,2.663-1.752,3.45c-0.103,0.078-0.225,0.156-0.354,0.235c-0.078,0.046-0.158,0.088-0.238,0.129
	c-0.125,0.066-0.251,0.133-0.395,0.19c-0.126,0.05-0.259,0.084-0.39,0.122c-0.114,0.033-0.219,0.075-0.343,0.1
	c-0.272,0.054-0.552,0.085-0.84,0.085s-0.568-0.031-0.84-0.085c-0.124-0.025-0.229-0.067-0.343-0.1
	c-0.132-0.038-0.264-0.071-0.39-0.122c-0.143-0.058-0.269-0.124-0.395-0.19c-0.081-0.042-0.162-0.083-0.239-0.13
	c-0.128-0.079-0.25-0.157-0.354-0.235c-1.057-0.787-1.752-2.034-1.752-3.45c0-2.378,1.934-4.312,4.312-4.312
	C90.189,292.68,92.123,294.613,92.123,296.991z M116.575,375.759H59.049v-28.08h57.526V375.759z M116.575,399.683H59.049v-7.754
	h57.526V399.683z M71.844,331.512l11.064-14.631c0.199,0.05,0.403,0.086,0.604,0.129c0.102,0.022,0.204,0.045,0.307,0.066
	c0.572,0.113,1.151,0.203,1.734,0.265c0.148,0.016,0.298,0.027,0.446,0.04c0.535,0.046,1.071,0.077,1.609,0.082
	c0.068,0.001,0.135,0.011,0.203,0.011c0.068,0,0.135-0.01,0.203-0.011c0.538-0.005,1.075-0.036,1.609-0.082
	c0.149-0.013,0.299-0.024,0.446-0.04c0.583-0.064,1.162-0.153,1.734-0.265c0.102-0.021,0.205-0.043,0.306-0.066
	c0.202-0.043,0.405-0.08,0.605-0.129l11.064,14.631H71.844z M109.405,149.584v-9.19h117.333v9.19H109.405z M242.906,168.475v-28.081
	h57.527v28.081H242.906z M425.72,465.493h-15.582c-4.466,0-8.084,3.618-8.084,8.084c0,4.466,3.618,8.084,8.084,8.084h29.469
	c0.005,0,0.011,0.001,0.016,0.001c0.005,0,0.011-0.001,0.016-0.001h7.886c2.991,0,5.425,2.434,5.425,5.425v3.32
	c0,2.991-2.434,5.425-5.425,5.425H252.774c-2.991,0-5.425-2.434-5.425-5.425v-3.32c0-2.991,2.434-5.425,5.425-5.425h7.744
	c0.005,0,0.011,0,0.016,0h120.501c4.466,0,8.084-3.618,8.084-8.084c0-4.466-3.618-8.084-8.084-8.084H274.579l8.055-14.171h25.883
	h83.265h25.882L425.72,465.493z"/>
<g>
</g>
<g>
</g>
<g>
</g>
<g>
</g>
<g>
</g>
<g>
</g>
<g>
</g>
<g>
</g>
<g>
</g>
<g>
</g>
<g>
</g>
<g>
</g>
<g>
</g>
<g>
</g>
<g>
</g>
</svg>