<?xml version="1.0" encoding="iso-8859-1"?>
<!-- Uploaded to: SVG Repo, www.svgrepo.com, Transformed by: SVG Repo Tools -->
<svg height="800px" width="800px" version="1.1" id="Layer_1" xmlns="http://www.w3.org/2000/svg" xmlns:xlink="http://www.w3.org/1999/xlink" 
	 viewBox="0 0 512 512" xml:space="preserve">
<path style="fill:#F28838;" d="M442.82,150.266h18.278c2.167,0,4.207,0.542,5.998,1.49v-38.918c-1.791,0.948-3.83,1.49-5.998,1.49
	H442.82c-1.626,0-3.173-0.316-4.606-0.866v37.672C439.647,150.58,441.194,150.266,442.82,150.266z"/>
<g>
	<path style="fill:#FFB92E;" d="M473.95,101.474V20.885c0-7.098-5.752-12.852-12.852-12.852H442.82
		c-7.098,0-12.852,5.755-12.852,12.852v80.589c0,7.098,5.755,12.852,12.852,12.852h18.278
		C468.198,114.326,473.95,108.572,473.95,101.474z"/>
	<path style="fill:#FFB92E;" d="M461.098,150.266H442.82c-7.098,0-12.852,5.755-12.852,12.852v14.187
		c0,7.098,5.755,12.852,12.852,12.852h18.278c7.1,0,12.852-5.755,12.852-12.852v-14.187
		C473.95,156.021,468.198,150.266,461.098,150.266z"/>
</g>
<g>
	<path style="fill:#36A1CB;" d="M155.37,243.986l-30.256-35.44c-2.418,5.094-5.913,9.775-10.48,13.675
		c-4.569,3.9-9.74,6.617-15.149,8.208l55.634,65.167l17.595,20.608l13.945,16.333c5.102-10.394,14.042-18.559,24.974-22.652
		l-39.01-45.691"/>
	<polygon style="fill:#36A1CB;" points="360.727,35.76 360.727,35.76 360.727,69.461 360.727,69.461 429.968,69.461 429.968,35.76 	
		"/>
	<path style="fill:#36A1CB;" d="M204.005,35.76c2.303,5.148,3.595,10.846,3.595,16.851c0,6.003-1.293,11.702-3.595,16.85h50.427
		V35.76H204.005z"/>
	<path style="fill:#36A1CB;" d="M133.535,77.763l-40.901,72.023c9.978,1.17,19.559,5.954,26.595,14.197
		c0.467,0.544,0.916,1.098,1.347,1.661l40.897-72.015C150.114,92.308,140.163,86.383,133.535,77.763z"/>
</g>
<path style="fill:#CCC3A8;" d="M360.727,73.344c0,7.098-5.755,12.852-12.852,12.852h-80.589c-7.098,0-12.852-5.755-12.852-12.852
	V31.88c0-7.098,5.755-12.852,12.852-12.852h80.589c7.098,0,12.852,5.755,12.852,12.852V73.344z"/>
<path style="fill:#7C7A75;" d="M347.875,19.028H321.1v67.168h26.775c7.098,0,12.852-5.755,12.852-12.852V31.88
	C360.727,24.782,354.972,19.028,347.875,19.028z"/>
<g>
	<path style="fill:#FFB92E;" d="M119.228,163.984c-14.812-17.351-40.887-19.408-58.236-4.596
		c-17.351,14.812-19.408,40.887-4.596,58.238c14.812,17.349,40.887,19.406,58.238,4.594
		C131.984,207.408,134.042,181.334,119.228,163.984z M97.707,202.394c-6.401,5.464-16.019,4.705-21.483-1.694
		c-5.466-6.401-4.707-16.019,1.694-21.486c6.401-5.464,16.017-4.705,21.483,1.696C104.866,187.312,104.109,196.93,97.707,202.394z"
		/>
	<path style="fill:#FFB92E;" d="M166.293,11.302c-22.814,0-41.307,18.496-41.307,41.309c0,22.814,18.494,41.307,41.307,41.307
		s41.309-18.494,41.309-41.307C207.602,29.798,189.105,11.302,166.293,11.302z M166.293,67.851c-8.415,0-15.237-6.823-15.237-15.239
		c0-8.415,6.821-15.239,15.237-15.239c8.417,0,15.239,6.823,15.239,15.239C181.531,61.027,174.71,67.851,166.293,67.851z"/>
</g>
<polyline style="fill:#7C7A75;" points="352.201,473.822 335.065,443.677 275.47,443.677 273.923,443.677 263.687,443.677 
	252.69,443.677 251.142,443.677 204.093,443.677 202.545,443.677 191.549,443.677 181.311,443.677 179.764,443.677 120.17,443.677 
	103.033,473.822 "/>
<path style="fill:#FFB92E;" d="M227.618,306.998c-25.188,0-45.608,20.418-45.608,45.606v91.073h91.216v-91.073
	C273.226,327.416,252.808,306.998,227.618,306.998z M227.618,369.033c-8.417,0-15.239-6.823-15.239-15.239
	c0-8.415,6.821-15.239,15.239-15.239c8.415,0,15.237,6.823,15.237,15.239C242.855,362.208,236.034,369.033,227.618,369.033z"/>
<path style="fill:#CCC3A8;" d="M339.566,503.967H132.154H51.473c-7.414,0-13.423-6.009-13.423-13.423v-3.299
	c0-7.414,6.009-13.423,13.423-13.423h80.681h204.852h66.758c7.414,0,13.423,6.009,13.423,13.423v3.299
	c0,7.414-6.009,13.423-13.423,13.423h-33.557h-3.51"/>
<g>
	<path style="fill:#EF9A1D;" d="M458.649,101.474V20.885c0-6.549,4.903-11.944,11.238-12.741c-0.53-0.066-1.066-0.111-1.614-0.111
		h-18.278c-7.098,0-12.852,5.755-12.852,12.852v80.589c0,7.098,5.755,12.852,12.852,12.852h18.278c0.548,0,1.084-0.046,1.614-0.111
		C463.552,113.418,458.649,108.023,458.649,101.474z"/>
	<path style="fill:#EF9A1D;" d="M458.649,177.305v-14.187c0-6.549,4.903-11.944,11.238-12.741c-0.53-0.065-1.066-0.111-1.614-0.111
		h-18.278c-7.098,0-12.852,5.755-12.852,12.852v14.187c0,7.098,5.755,12.852,12.852,12.852h18.278c0.548,0,1.084-0.046,1.614-0.111
		C463.552,189.249,458.649,183.854,458.649,177.305z"/>
</g>
<path style="fill:#C9B585;" d="M283.928,73.344V31.88c0-7.098,5.755-12.852,12.852-12.852h-21.505
	c-7.098,0-12.852,5.755-12.852,12.852v41.464c0,7.098,5.755,12.852,12.852,12.852h21.505
	C289.683,86.196,283.928,80.44,283.928,73.344z"/>
<g>
	<path style="fill:#EF9A1D;" d="M85.835,217.625c-14.812-17.351-12.756-43.426,4.596-58.238c4.821-4.115,10.315-6.924,16.053-8.468
		c-12.699-3.407-26.804-0.712-37.558,8.468c-17.351,14.812-19.408,40.887-4.596,58.238c10.695,12.529,27.265,17.077,42.182,13.062
		C98.726,228.599,91.465,224.221,85.835,217.625z"/>
	<path style="fill:#EF9A1D;" d="M153.952,55.067c0-19.092,12.957-35.153,30.555-39.887c-3.429-0.922-7.032-1.422-10.753-1.422
		c-22.814,0-41.307,18.496-41.307,41.309s18.494,41.307,41.307,41.307c3.721,0,7.324-0.5,10.753-1.422
		C166.91,90.219,153.952,74.159,153.952,55.067z"/>
</g>
<path style="fill:#6B6861;" d="M135.905,478.213c-1.185-1.827-1.364-4.129-0.474-6.118l14.264-31.932
	c1.036-2.314,3.332-3.805,5.868-3.805h-21.505c-2.535,0-4.833,1.491-5.868,3.805l-14.265,31.932
	c-0.888,1.988-0.709,4.29,0.474,6.118c1.185,1.827,3.215,2.929,5.393,2.929h21.505C139.118,481.142,137.088,480.04,135.905,478.213z
	"/>
<path style="fill:#EF9A1D;" d="M246.217,308.284c-3.451-0.833-7.047-1.286-10.754-1.286c-25.188,0-45.608,20.418-45.608,45.606
	v91.073h21.506v-91.073C211.361,331.121,226.219,313.119,246.217,308.284z"/>
<path style="fill:#C9B585;" d="M66.939,490.544v-3.299c0-7.414,6.008-13.423,13.423-13.423H58.856
	c-7.414,0-13.423,6.009-13.423,13.423v3.299c0,7.414,6.009,13.423,13.423,13.423h21.506
	C72.948,503.967,66.939,497.957,66.939,490.544z"/>
<g>
	<path style="fill:#231F20;" d="M481.983,101.474V20.885C481.983,9.369,472.614,0,461.098,0H442.82
		c-11.516,0-20.885,9.369-20.885,20.885v6.843h-53.593c-1.931-9.533-10.374-16.732-20.467-16.732H321.1h-53.814
		c-10.094,0-18.536,7.199-20.467,16.732h-37.945C200.299,13.111,184.428,3.27,166.293,3.27c-27.206,0-49.339,22.135-49.339,49.341
		c0,9.336,2.608,18.074,7.131,25.526l-35.967,63.334c-0.108-0.001-0.215-0.009-0.323-0.009c-11.721,0-23.093,4.196-32.017,11.815
		c-10.024,8.556-16.116,20.506-17.152,33.644c-1.037,13.138,3.105,25.895,11.662,35.92c3.139,3.677,6.767,6.815,10.735,9.382
		c1.017,9.263,4.575,31.981,16.485,58.756c13.714,30.835,41.533,72.919,96.47,100.603v44.061H120.17
		c-2.889,0-5.556,1.551-6.984,4.063L98.359,465.79H51.473c-11.83,0-21.456,9.625-21.456,21.456v3.299
		c0,11.83,9.625,21.456,21.456,21.456h288.093c4.437,0,8.033-3.595,8.033-8.033c0-4.437-3.595-8.033-8.033-8.033H51.473
		c-2.972,0-5.39-2.418-5.39-5.39v-3.299c0-2.972,2.418-5.39,5.39-5.39h51.395c0.006,0,0.013,0,0.019,0h249.305
		c0.005,0,0.011,0.001,0.016,0.001s0.011-0.001,0.016-0.001h51.539c2.972,0,5.39,2.418,5.39,5.39v3.299
		c0,2.972-2.418,5.39-5.39,5.39h-37.067c-4.437,0-8.033,3.595-8.033,8.033c0,4.437,3.595,8.033,8.033,8.033h37.067
		c11.83,0,21.456-9.625,21.456-21.456v-3.299c0-11.83-9.625-21.456-21.456-21.456h-46.89l-14.826-26.082
		c-1.428-2.513-4.094-4.063-6.984-4.063h-53.804v-83.041c0-29.576-24.063-53.638-53.641-53.638c-4.596,0-9.056,0.583-13.316,1.674
		l-35.57-41.662c-2.879-3.372-7.949-3.774-11.325-0.893c-3.374,2.88-3.773,7.951-0.893,11.325l32.355,37.897
		c-5.006,3.171-9.439,7.146-13.137,11.775l-73.1-85.623c2.538-1.479,4.949-3.191,7.219-5.127c0.594-0.509,1.174-1.029,1.741-1.562
		c0.226-0.212,0.441-0.432,0.663-0.647c0.331-0.322,0.663-0.643,0.983-0.972c0.278-0.286,0.546-0.581,0.816-0.872
		c0.241-0.26,0.484-0.519,0.72-0.785c0.325-0.365,0.637-0.737,0.949-1.111c0.105-0.126,0.216-0.247,0.32-0.375l23.217,27.196
		c2.879,3.372,7.949,3.774,11.325,0.893c3.373-2.88,3.773-7.951,0.893-11.325l-27.07-31.707c1.371-3.95,2.253-8.098,2.591-12.377
		c0.824-10.443-1.635-20.641-6.972-29.42l35.96-63.322c0.102,0.001,0.201,0.007,0.303,0.007c18.135,0,34.007-9.842,42.581-24.458
		h37.944c1.93,9.534,10.373,16.735,20.468,16.735h53.814h26.775c10.094,0,18.537-7.2,20.468-16.735h53.593v23.981
		c0,6.762,3.246,12.768,8.246,16.587v28.47c-4.999,3.819-8.246,9.824-8.246,16.587v14.187c0,11.516,9.369,20.885,20.885,20.885
		h1.106v29.214c0,4.437,3.595,8.033,8.033,8.033s8.033-3.595,8.033-8.033v-29.214h1.106c11.516,0,20.885-9.369,20.885-20.885
		v-14.187c0-6.112-2.656-11.602-6.854-15.425v-30.794C479.328,113.076,481.983,107.586,481.983,101.474z M438.001,20.885
		c0-2.657,2.162-4.82,4.82-4.82h18.278c2.657,0,4.82,2.162,4.82,4.82v80.589c0,1.945-1.163,3.615-2.826,4.375
		c-0.064,0.029-0.127,0.061-0.193,0.088c-0.247,0.101-0.504,0.181-0.77,0.24c-0.051,0.011-0.104,0.019-0.155,0.029
		c-0.285,0.052-0.576,0.089-0.876,0.089H442.82c-0.302,0-0.595-0.035-0.883-0.089c-0.27-0.054-0.541-0.132-0.81-0.233
		c-1.822-0.689-3.127-2.437-3.127-4.497V69.46v-33.7L438.001,20.885L438.001,20.885z M459.063,142.233h-12.817v-19.875h12.817
		V142.233z M54.641,188.187c0.699-8.86,4.807-16.92,11.568-22.69c6.018-5.139,13.684-7.968,21.585-7.968
		c1.299,0,2.588,0.08,3.862,0.229c0.014,0.002,0.028,0.006,0.042,0.007c1.433,0.168,2.841,0.433,4.223,0.779
		c0.165,0.042,0.331,0.079,0.496,0.123c0.314,0.084,0.624,0.177,0.935,0.269c0.238,0.071,0.476,0.142,0.711,0.218
		c0.269,0.087,0.536,0.179,0.801,0.272c0.281,0.099,0.56,0.201,0.838,0.307c0.229,0.088,0.458,0.177,0.687,0.269
		c0.322,0.132,0.642,0.27,0.96,0.411c0.184,0.081,0.369,0.162,0.553,0.246c0.401,0.187,0.796,0.383,1.188,0.587
		c0.1,0.051,0.202,0.1,0.301,0.152c0.51,0.27,1.013,0.553,1.509,0.848c0.001,0,0.001,0.001,0.002,0.001
		c0.48,0.287,0.951,0.589,1.416,0.901c0.124,0.082,0.245,0.17,0.367,0.255c0.34,0.233,0.676,0.472,1.007,0.719
		c0.153,0.115,0.304,0.232,0.455,0.349c0.295,0.227,0.586,0.459,0.873,0.697c0.161,0.134,0.321,0.268,0.48,0.404
		c0.274,0.236,0.544,0.478,0.811,0.724c0.155,0.142,0.311,0.284,0.464,0.429c0.277,0.265,0.548,0.538,0.817,0.813
		c0.13,0.133,0.261,0.261,0.389,0.395c0.39,0.411,0.771,0.832,1.141,1.266c0.346,0.404,0.679,0.816,1.002,1.233
		c0.015,0.019,0.031,0.037,0.045,0.056c5.059,6.546,7.474,14.626,6.818,22.932c-0.32,4.06-1.364,7.947-3.043,11.527
		c-0.026,0.052-0.059,0.1-0.085,0.152c-0.997,2.1-2.198,4.067-3.588,5.889c-0.021,0.028-0.042,0.057-0.064,0.085
		c-0.303,0.395-0.619,0.781-0.94,1.162c-0.059,0.07-0.116,0.142-0.176,0.212c-0.296,0.345-0.603,0.681-0.915,1.015
		c-0.085,0.091-0.166,0.185-0.253,0.275c-0.321,0.336-0.653,0.664-0.989,0.987c-0.077,0.075-0.15,0.152-0.228,0.226
		c-0.418,0.395-0.846,0.781-1.286,1.157c-0.417,0.356-0.842,0.697-1.272,1.029c-0.151,0.117-0.305,0.227-0.458,0.341
		c-0.27,0.201-0.542,0.402-0.817,0.594c-0.214,0.15-0.432,0.295-0.649,0.439c-0.215,0.144-0.432,0.284-0.65,0.422
		c-0.252,0.159-0.504,0.316-0.759,0.467c-0.185,0.11-0.372,0.216-0.559,0.322c-0.281,0.16-0.561,0.319-0.846,0.47
		c-0.159,0.085-0.32,0.163-0.48,0.244c-0.527,0.269-1.061,0.523-1.601,0.763c-0.224,0.1-0.446,0.204-0.673,0.298
		c-0.212,0.089-0.428,0.169-0.642,0.253c-0.304,0.12-0.608,0.239-0.916,0.349c-0.187,0.067-0.376,0.13-0.563,0.194
		c-0.351,0.119-0.704,0.235-1.06,0.343c-3.106,0.944-6.352,1.441-9.64,1.441c-0.001,0-0.002,0-0.003,0
		c-9.763,0-18.994-4.254-25.325-11.669C56.735,205.651,53.941,197.048,54.641,188.187z M338.394,465.789H116.84l8.004-14.079h57.167
		h91.216h57.165L338.394,465.789z M265.193,352.604v83.041h-75.151v-83.041c0-20.719,16.856-37.573,37.575-37.573
		S265.193,331.885,265.193,352.604z M177.32,333.97c-2.158,5.807-3.343,12.083-3.343,18.632v20.832
		c-36.939-20.389-64.333-50.072-81.529-88.393c-8.329-18.564-12.303-35.19-14.171-45.845c3.12,0.614,6.314,0.947,9.552,0.947
		c0.002,0,0.002,0,0.004,0c2.939,0,5.856-0.265,8.719-0.781L177.32,333.97z M118.84,152.434c-0.374-0.303-0.756-0.592-1.138-0.884
		c-0.072-0.055-0.141-0.111-0.213-0.166c-0.685-0.516-1.382-1.014-2.092-1.493c-0.02-0.013-0.041-0.026-0.06-0.04
		c-0.658-0.442-1.328-0.865-2.006-1.276c-0.136-0.082-0.273-0.163-0.41-0.244c-0.608-0.36-1.223-0.706-1.846-1.039
		c-0.114-0.061-0.225-0.124-0.34-0.183c-0.741-0.389-1.49-0.761-2.251-1.112c-0.026-0.012-0.052-0.022-0.078-0.034
		c-0.692-0.317-1.391-0.615-2.097-0.9c-0.228-0.092-0.457-0.179-0.685-0.268c-0.251-0.097-0.499-0.201-0.752-0.293l30.409-53.547
		c0.168,0.136,0.343,0.263,0.513,0.397c4.026,3.177,8.55,5.748,13.443,7.557L118.84,152.434z M166.293,85.885
		c-1.336,0-2.65-0.088-3.943-0.242c-0.529-0.062-1.056-0.137-1.58-0.225c-0.018-0.003-0.035-0.006-0.054-0.01
		c-4.91-0.835-9.575-2.788-13.624-5.649c-0.002-0.001-0.003-0.002-0.005-0.003c-0.413-0.292-0.819-0.597-1.22-0.908
		c-0.076-0.059-0.151-0.118-0.226-0.178c-0.319-0.253-0.633-0.513-0.944-0.778c-0.144-0.122-0.286-0.245-0.427-0.37
		c-0.233-0.206-0.462-0.416-0.69-0.628c-0.2-0.187-0.401-0.376-0.595-0.569c-0.16-0.156-0.316-0.316-0.472-0.476
		c-0.243-0.248-0.485-0.499-0.721-0.756c-0.103-0.111-0.203-0.227-0.305-0.341c-0.27-0.302-0.537-0.606-0.795-0.918
		c-0.067-0.08-0.132-0.164-0.198-0.245c-4.667-5.729-7.474-13.033-7.474-20.982c0-18.349,14.928-33.276,33.274-33.276
		c13.623,0,25.355,8.234,30.497,19.983c0.137,0.315,0.268,0.632,0.395,0.95c0.082,0.205,0.165,0.409,0.243,0.616
		c0.121,0.321,0.233,0.644,0.345,0.967c0.075,0.217,0.151,0.434,0.222,0.652c0.097,0.303,0.184,0.608,0.272,0.915
		c0.071,0.245,0.145,0.488,0.209,0.736c0.073,0.275,0.135,0.553,0.2,0.829c0.065,0.278,0.135,0.556,0.194,0.836
		c0.052,0.252,0.094,0.504,0.14,0.757c0.056,0.305,0.117,0.609,0.164,0.917c0.039,0.248,0.065,0.499,0.099,0.749
		c0.042,0.313,0.088,0.623,0.12,0.938c0.03,0.297,0.047,0.595,0.07,0.893c0.02,0.27,0.048,0.539,0.062,0.811
		c0.029,0.574,0.045,1.15,0.045,1.729s-0.015,1.155-0.045,1.729c-0.014,0.268-0.041,0.531-0.061,0.797
		c-0.022,0.303-0.04,0.606-0.071,0.908c-0.032,0.307-0.077,0.612-0.117,0.917c-0.033,0.257-0.062,0.515-0.102,0.771
		c-0.046,0.299-0.105,0.593-0.16,0.89c-0.048,0.262-0.092,0.526-0.146,0.786c-0.057,0.271-0.123,0.538-0.186,0.806
		c-0.067,0.287-0.132,0.575-0.208,0.86c-0.062,0.237-0.133,0.469-0.2,0.704c-0.091,0.317-0.182,0.634-0.283,0.949
		c-0.066,0.208-0.139,0.412-0.21,0.618c-0.115,0.335-0.231,0.672-0.358,1.005c-0.074,0.195-0.152,0.388-0.229,0.58
		c-0.132,0.331-0.268,0.66-0.411,0.987C191.638,77.659,179.911,85.885,166.293,85.885z M214.975,60.614
		c0.046-0.281,0.092-0.561,0.134-0.843c0.075-0.516,0.139-1.035,0.198-1.554c0.031-0.27,0.064-0.54,0.091-0.811
		c0.054-0.558,0.093-1.119,0.129-1.681c0.015-0.237,0.036-0.471,0.047-0.709c0.039-0.798,0.061-1.599,0.061-2.403
		s-0.022-1.605-0.061-2.404c-0.012-0.237-0.032-0.47-0.047-0.706c-0.035-0.563-0.075-1.127-0.129-1.687
		c-0.026-0.268-0.059-0.533-0.09-0.8c-0.059-0.525-0.124-1.049-0.2-1.57c-0.041-0.276-0.086-0.549-0.131-0.825
		s-0.081-0.553-0.131-0.827h31.554V61.43h-31.554C214.895,61.158,214.93,60.885,214.975,60.614z M262.465,73.343V69.46v-33.7v-3.88
		c0-2.657,2.162-4.82,4.82-4.82h45.781v51.102h-45.781C264.628,78.162,262.465,76.001,262.465,73.343z M352.695,73.343
		c0,2.657-2.162,4.82-4.82,4.82h-18.743V27.06h18.743c2.657,0,4.82,2.162,4.82,4.82v3.88v33.702V73.343z M368.76,61.428V43.793
		h53.176v17.636H368.76V61.428z M465.918,177.305c0,2.657-2.162,4.82-4.82,4.82H442.82c-2.657,0-4.82-2.162-4.82-4.82v-14.187
		c0-2.083,1.336-3.844,3.188-4.516c0.246-0.09,0.495-0.165,0.745-0.214c0.288-0.054,0.583-0.089,0.886-0.089h18.278
		c0.3,0,0.591,0.035,0.876,0.089c0.051,0.01,0.104,0.017,0.155,0.029c0.266,0.058,0.523,0.139,0.769,0.239
		c0.065,0.027,0.13,0.058,0.194,0.088c1.662,0.76,2.825,2.43,2.825,4.375L465.918,177.305L465.918,177.305z"/>
	<path style="fill:#231F20;" d="M227.618,377.064c12.831,0,23.27-10.439,23.27-23.272s-10.438-23.272-23.27-23.272
		s-23.272,10.439-23.272,23.272S214.786,377.064,227.618,377.064z M227.618,346.587c3.972,0,7.205,3.233,7.205,7.207
		c0,3.973-3.232,7.207-7.205,7.207c-3.973,0-7.207-3.233-7.207-7.207C220.411,349.82,223.644,346.587,227.618,346.587z"/>
	<path style="fill:#231F20;" d="M87.821,214.076c5.53,0,10.893-1.979,15.102-5.572c9.758-8.329,10.92-23.047,2.588-32.808
		c-4.429-5.187-10.883-8.161-17.705-8.161c-5.529,0-10.892,1.978-15.102,5.572c-9.759,8.332-10.919,23.051-2.588,32.809
		C74.544,211.101,80.997,214.076,87.821,214.076z M83.134,185.323c1.672-1.426,3.462-1.724,4.671-1.724
		c2.116,0,4.117,0.921,5.488,2.527c0.161,0.187,0.308,0.381,0.447,0.58c0.016,0.022,0.029,0.048,0.045,0.071
		c0.121,0.179,0.236,0.361,0.338,0.547c0,0,0,0.001,0.001,0.001c1.383,2.506,1.14,5.624-0.61,7.887
		c-0.005,0.006-0.01,0.014-0.015,0.02c-0.123,0.157-0.257,0.308-0.394,0.457c-0.028,0.031-0.052,0.063-0.081,0.093
		c-0.167,0.175-0.344,0.342-0.53,0.501c-1.672,1.426-3.463,1.725-4.672,1.725c-2.116,0-4.117-0.921-5.488-2.527
		C79.753,192.462,80.113,187.904,83.134,185.323z"/>
	<path style="fill:#231F20;" d="M166.293,29.34c-12.831,0-23.27,10.439-23.27,23.272s10.438,23.272,23.27,23.272
		s23.272-10.439,23.272-23.272S179.124,29.34,166.293,29.34z M166.293,59.818c-3.972,0-7.205-3.233-7.205-7.207
		s3.232-7.207,7.205-7.207c3.973,0,7.207,3.233,7.207,7.207S170.266,59.818,166.293,59.818z"/>
</g>
<g>
</g>
<g>
</g>
<g>
</g>
<g>
</g>
<g>
</g>
<g>
</g>
<g>
</g>
<g>
</g>
<g>
</g>
<g>
</g>
<g>
</g>
<g>
</g>
<g>
</g>
<g>
</g>
<g>
</g>
</svg>