<?xml version="1.0" encoding="iso-8859-1"?>
<!-- Uploaded to: SVG Repo, www.svgrepo.com, Transformed by: SVG Repo Tools -->
<svg height="800px" width="800px" version="1.1" id="Layer_1" xmlns="http://www.w3.org/2000/svg" xmlns:xlink="http://www.w3.org/1999/xlink" 
	 viewBox="0 0 512 512" xml:space="preserve">
<path style="fill:#36A1CB;" d="M220.959,322.3h-46.172h-33.74h-30.908v33.917H220.96c-2.319-5.18-3.618-10.916-3.618-16.957
	C217.34,333.216,218.64,327.479,220.959,322.3z"/>
<polygon style="fill:#2393B5;" points="138.076,322.3 97.128,322.3 97.128,356.217 139.591,356.217 139.591,322.3 "/>
<g>
	<path style="fill:#36A1CB;" d="M275.873,187.794v-34.702c-5.181,2.319-10.916,3.617-16.959,3.617
		c-6.043,0-11.778-1.299-16.959-3.617v148.211c5.181-2.317,10.916-3.616,16.959-3.616c6.043,0,11.778,1.299,16.959,3.616v-86.235"/>
	<path style="fill:#36A1CB;" d="M296.868,98.177c2.319,5.181,3.618,10.916,3.618,16.959s-1.3,11.778-3.618,16.959h50.753V98.177
		H296.868z"/>
</g>
<path style="fill:#FFB92E;" d="M454.597,136.001c0,7.144-5.792,12.935-12.935,12.935h-81.106c-7.144,0-12.935-5.79-12.935-12.935
	v-41.73c0-7.143,5.79-12.935,12.935-12.935h81.106c7.143,0,12.935,5.792,12.935,12.935V136.001z"/>
<path style="fill:#F28838;" d="M441.662,81.337h-26.947v67.599h26.947c7.143,0,12.935-5.79,12.935-12.935v-41.73
	C454.597,87.128,448.805,81.337,441.662,81.337z"/>
<g>
	<path style="fill:#CCC3A8;" d="M128.828,490.407v-3.32c0-7.461-6.048-13.509-13.509-13.509h-12.525H34.118H21.593
		c-7.461,0-13.509,6.048-13.509,13.509v3.32c0,7.461,6.048,13.509,13.509,13.509h12.524h68.676h12.524
		C122.779,503.916,128.828,497.868,128.828,490.407z"/>
	<path style="fill:#CCC3A8;" d="M128.828,24.913v-3.32c0-7.461-6.048-13.509-13.509-13.509h-12.525H34.118H21.593
		c-7.461,0-13.509,6.048-13.509,13.509v3.32c0,7.461,6.048,13.509,13.509,13.509h12.524h68.676h12.524
		C122.779,38.423,128.828,32.375,128.828,24.913z"/>
</g>
<polyline style="fill:#7C7A75;" points="110.139,98.431 110.139,38.423 102.793,38.423 44.229,38.423 34.118,38.423 30.719,38.423 
	30.719,473.576 44.229,473.576 102.793,473.576 110.139,473.576 110.139,125.373 "/>
<polyline style="fill:#6D6C69;" points="70.43,98.431 70.43,38.423 66.756,38.423 37.474,38.423 32.419,38.423 30.719,38.423 
	30.719,473.576 37.474,473.576 66.756,473.576 70.43,473.576 70.43,125.373 "/>
<g>
	<path style="fill:#FFB92E;" d="M258.914,73.562c-22.96,0-41.573,18.614-41.573,41.573c0,22.96,18.614,41.573,41.573,41.573
		c22.96,0,41.573-18.614,41.573-41.573S281.874,73.562,258.914,73.562z M258.914,130.473c-8.47,0-15.336-6.866-15.336-15.337
		c0-8.469,6.865-15.336,15.336-15.336c8.471,0,15.336,6.866,15.336,15.336C274.25,123.606,267.385,130.473,258.914,130.473z"/>
	<path style="fill:#FFB92E;" d="M258.914,297.685c-22.96,0-41.573,18.612-41.573,41.573c0,22.96,18.614,41.572,41.573,41.572
		c22.96,0,41.573-18.613,41.573-41.572C300.487,316.297,281.874,297.685,258.914,297.685z M258.914,354.595
		c-8.47,0-15.336-6.866-15.336-15.337c0-8.469,6.865-15.336,15.336-15.336c8.471,0,15.336,6.866,15.336,15.336
		C274.25,347.729,267.385,354.595,258.914,354.595z"/>
</g>
<path style="fill:#2393B5;" d="M324.524,98.177h-31.619c3.565,5.181,5.562,10.916,5.562,16.959s-1.997,11.778-5.562,16.959h31.619
	c3.565-5.181,5.562-10.916,5.562-16.959C330.087,109.093,328.089,103.358,324.524,98.177z"/>
<path style="fill:#EF9A1D;" d="M377.806,136.001v-41.73c0-7.143,5.79-12.935,12.935-12.935h-22.292
	c-7.144,0-12.935,5.792-12.935,12.935v41.73c0,7.144,5.79,12.935,12.935,12.935h22.292
	C383.597,148.936,377.806,143.145,377.806,136.001z"/>
<g>
	<path style="fill:#C9B585;" d="M38.27,490.407v-3.32c0-7.461,6.048-13.509,13.509-13.509h-9.768H29.488
		c-7.461,0-13.509,6.048-13.509,13.509v3.32c0,7.461,6.048,13.509,13.509,13.509h12.524h9.768
		C44.318,503.916,38.27,497.868,38.27,490.407z"/>
	<path style="fill:#C9B585;" d="M38.27,24.913v-3.32c0-7.461,6.048-13.509,13.509-13.509h-9.768H29.488
		c-7.461,0-13.509,6.048-13.509,13.509v3.32c0,7.461,6.048,13.509,13.509,13.509h12.524h9.768
		C44.318,38.423,38.27,32.375,38.27,24.913z"/>
</g>
<g>
	<path style="fill:#FFAB31;" d="M247.526,115.135c0-19.098,12.883-35.177,30.429-40.049c-3.549-0.986-7.284-1.524-11.147-1.524
		c-22.96,0-41.573,18.614-41.573,41.573c0,22.96,18.613,41.573,41.573,41.573c3.862,0,7.597-0.538,11.147-1.524
		C260.409,150.312,247.526,134.233,247.526,115.135z"/>
	<path style="fill:#FFAB31;" d="M247.526,339.259c0-19.099,12.883-35.177,30.429-40.05c-3.549-0.985-7.284-1.523-11.147-1.523
		c-22.96,0-41.573,18.612-41.573,41.573c0,22.96,18.613,41.572,41.573,41.572c3.862,0,7.597-0.538,11.147-1.523
		C260.409,374.435,247.526,358.357,247.526,339.259z"/>
</g>
<g>
	<path style="fill:#231F20;" d="M503.916,107.05h-41.235V94.272c0-11.59-9.429-21.019-21.019-21.019h-26.947h-54.159
		c-10.159,0-18.655,7.246-20.599,16.84h-38.19c-8.63-14.71-24.602-24.615-42.854-24.615c-27.381,0-49.658,22.277-49.658,49.658
		c0,18.251,9.905,34.224,24.615,42.854v138.416c-7.351,4.313-13.497,10.459-17.81,17.81h-97.837V125.373
		c0-4.466-3.618-8.084-8.084-8.084c-4.466,0-8.084,3.618-8.084,8.084v196.926v33.917v109.276H78.32
		c0.123-0.561,0.192-1.141,0.192-1.739V48.247c0-0.597-0.069-1.178-0.192-1.739h23.735v51.924c0,4.465,3.618,8.084,8.084,8.084
		c4.466,0,8.084-3.62,8.084-8.084V46.288c10.534-1.427,18.689-10.456,18.689-21.375v-3.32C136.912,9.687,127.224,0,115.317,0H21.593
		C9.687,0,0,9.687,0,21.593v3.32C0,36.82,9.687,46.507,21.593,46.507h1.041v418.985h-1.041C9.687,465.493,0,475.18,0,487.087v3.32
		C0,502.313,9.687,512,21.593,512h93.724c11.906,0,21.593-9.687,21.593-21.593v-3.32c0-10.919-8.154-19.949-18.689-21.375v-101.41
		h97.836c8.63,14.71,24.603,24.615,42.854,24.615c27.381,0,49.658-22.276,49.658-49.656c0-18.251-9.905-34.224-24.615-42.854
		v-81.338c0-4.466-3.618-8.084-8.084-8.084s-8.084,3.618-8.084,8.084v75.325c-0.284-0.052-0.571-0.088-0.856-0.135
		c-0.267-0.043-0.535-0.087-0.803-0.126c-0.508-0.073-1.018-0.137-1.528-0.195c-0.3-0.035-0.599-0.071-0.9-0.1
		c-0.485-0.046-0.972-0.08-1.461-0.111c-0.32-0.022-0.639-0.049-0.96-0.064c-0.576-0.027-1.152-0.037-1.729-0.044
		c-0.213-0.003-0.424-0.016-0.637-0.016c-0.213,0-0.424,0.013-0.637,0.016c-0.577,0.008-1.153,0.017-1.729,0.044
		c-0.321,0.015-0.64,0.042-0.96,0.064c-0.487,0.032-0.974,0.065-1.461,0.111c-0.302,0.029-0.6,0.066-0.9,0.1
		c-0.511,0.058-1.021,0.121-1.527,0.195c-0.269,0.039-0.537,0.083-0.804,0.126c-0.285,0.046-0.572,0.083-0.856,0.135V164.002
		c0.281,0.051,0.567,0.087,0.849,0.134c0.272,0.044,0.542,0.088,0.815,0.128c0.504,0.073,1.011,0.136,1.519,0.194
		c0.302,0.034,0.603,0.072,0.905,0.101c0.485,0.046,0.972,0.08,1.459,0.111c0.32,0.022,0.639,0.049,0.96,0.064
		c0.576,0.027,1.152,0.037,1.729,0.044c0.213,0.002,0.424,0.016,0.637,0.016c0.213,0,0.424-0.013,0.637-0.016
		c0.577-0.008,1.152-0.017,1.729-0.044c0.322-0.015,0.64-0.042,0.96-0.064c0.487-0.032,0.974-0.065,1.459-0.111
		c0.303-0.029,0.604-0.066,0.905-0.101c0.508-0.058,1.014-0.121,1.519-0.194c0.273-0.04,0.543-0.084,0.814-0.128
		c0.282-0.046,0.568-0.083,0.85-0.134v23.791c0,4.465,3.618,8.084,8.084,8.084s8.084-3.62,8.084-8.084v-29.804
		c7.352-4.313,13.497-10.459,17.81-17.81h38.189c1.943,9.594,10.441,16.841,20.6,16.841h54.159h26.947
		c11.59,0,21.019-9.429,21.019-21.019V123.22h41.237c4.466,0,8.084-3.62,8.084-8.084C512,110.67,508.382,107.05,503.916,107.05z
		 M16.168,24.913v-3.32c0-2.991,2.434-5.425,5.425-5.425h93.724c2.991,0,5.425,2.434,5.425,5.425v3.32
		c0,2.991-2.434,5.425-5.425,5.425h-5.179H30.719h-9.125C18.602,30.338,16.168,27.906,16.168,24.913z M38.803,46.507h23.733
		c-0.123,0.561-0.192,1.141-0.192,1.739v415.507c0,0.597,0.069,1.178,0.192,1.739H38.803V46.507z M120.744,487.087v3.32
		c0,2.991-2.434,5.425-5.425,5.425H21.593c-2.991,0-5.425-2.434-5.425-5.425v-3.32c0-2.991,2.434-5.425,5.425-5.425h9.125h79.42
		h5.179C118.31,481.662,120.744,484.094,120.744,487.087z M210.047,348.133h-91.824v-17.749h91.825
		c-0.05,0.274-0.085,0.551-0.13,0.827c-0.045,0.278-0.092,0.556-0.133,0.836c-0.077,0.525-0.142,1.052-0.202,1.58
		c-0.03,0.267-0.064,0.534-0.089,0.802c-0.055,0.566-0.095,1.134-0.13,1.703c-0.015,0.236-0.036,0.47-0.047,0.706
		c-0.039,0.804-0.061,1.61-0.061,2.42s0.023,1.616,0.061,2.42c0.011,0.236,0.032,0.47,0.047,0.706
		c0.036,0.57,0.075,1.139,0.13,1.706c0.026,0.264,0.058,0.525,0.088,0.787c0.06,0.538,0.127,1.074,0.205,1.608
		c0.039,0.264,0.082,0.527,0.125,0.791C209.959,347.562,209.997,347.848,210.047,348.133z M258.914,372.748
		c-13.695,0-25.489-8.266-30.674-20.068c-0.152-0.348-0.296-0.697-0.438-1.049c-0.072-0.182-0.147-0.363-0.217-0.548
		c-0.129-0.341-0.248-0.683-0.365-1.026c-0.07-0.205-0.143-0.41-0.209-0.617c-0.1-0.313-0.191-0.628-0.281-0.944
		c-0.069-0.24-0.142-0.48-0.206-0.722c-0.074-0.28-0.137-0.564-0.204-0.846c-0.065-0.276-0.134-0.552-0.192-0.83
		c-0.053-0.253-0.095-0.509-0.142-0.764c-0.057-0.308-0.117-0.614-0.166-0.925c-0.038-0.244-0.065-0.489-0.096-0.733
		c-0.043-0.321-0.089-0.64-0.123-0.964c-0.03-0.292-0.046-0.585-0.069-0.878c-0.022-0.279-0.05-0.556-0.064-0.836
		c-0.029-0.578-0.045-1.157-0.045-1.739s0.015-1.162,0.045-1.74c0.015-0.285,0.043-0.565,0.065-0.847
		c0.023-0.289,0.038-0.579,0.068-0.867c0.033-0.329,0.082-0.654,0.125-0.981c0.031-0.238,0.057-0.479,0.094-0.716
		c0.05-0.316,0.111-0.628,0.168-0.942c0.045-0.249,0.087-0.498,0.139-0.746c0.059-0.285,0.129-0.566,0.196-0.847
		c0.066-0.276,0.127-0.553,0.199-0.828c0.066-0.248,0.139-0.493,0.21-0.738c0.089-0.309,0.178-0.62,0.276-0.927
		c0.068-0.212,0.142-0.421,0.213-0.632c0.116-0.337,0.234-0.675,0.36-1.01c0.071-0.189,0.147-0.374,0.222-0.562
		c0.139-0.347,0.281-0.692,0.431-1.035c3.391-7.722,9.609-13.926,17.341-17.297c0.279-0.122,0.559-0.236,0.841-0.35
		c0.241-0.097,0.483-0.195,0.728-0.287c0.285-0.108,0.572-0.207,0.859-0.306c0.253-0.087,0.507-0.177,0.763-0.259
		c0.269-0.086,0.541-0.163,0.812-0.241c0.279-0.081,0.556-0.165,0.839-0.238c0.246-0.065,0.494-0.12,0.742-0.179
		c0.308-0.073,0.615-0.15,0.927-0.215c0.226-0.047,0.455-0.084,0.681-0.126c0.332-0.061,0.663-0.127,0.999-0.179
		c0.225-0.035,0.453-0.059,0.678-0.089c0.338-0.045,0.675-0.095,1.016-0.129c0.275-0.028,0.551-0.043,0.827-0.065
		c0.295-0.023,0.59-0.053,0.887-0.068c0.577-0.029,1.157-0.045,1.738-0.045s1.161,0.015,1.738,0.045
		c0.298,0.015,0.592,0.044,0.887,0.068c0.276,0.022,0.552,0.037,0.827,0.065c0.341,0.034,0.678,0.084,1.015,0.129
		c0.226,0.03,0.454,0.054,0.678,0.089c0.336,0.052,0.667,0.116,0.999,0.179c0.227,0.042,0.456,0.08,0.682,0.126
		c0.312,0.065,0.618,0.141,0.926,0.215c0.248,0.059,0.496,0.114,0.742,0.179c0.281,0.073,0.558,0.157,0.836,0.238
		c0.272,0.079,0.544,0.156,0.814,0.243c0.255,0.082,0.508,0.17,0.761,0.259c0.288,0.099,0.576,0.199,0.861,0.307
		c0.244,0.092,0.485,0.19,0.725,0.287c0.281,0.113,0.562,0.229,0.842,0.35c11.848,5.164,20.154,16.984,20.154,30.712
		C292.403,357.724,277.38,372.748,258.914,372.748z M258.914,81.646c13.698,0,25.493,8.27,30.676,20.075
		c0.151,0.345,0.294,0.691,0.433,1.039c0.073,0.183,0.148,0.366,0.218,0.552c0.129,0.34,0.248,0.682,0.365,1.025
		c0.07,0.205,0.142,0.41,0.209,0.617c0.101,0.315,0.191,0.631,0.282,0.947c0.069,0.239,0.141,0.476,0.205,0.718
		c0.074,0.281,0.138,0.566,0.205,0.848c0.065,0.276,0.134,0.551,0.192,0.829c0.053,0.254,0.095,0.511,0.142,0.765
		c0.056,0.307,0.117,0.612,0.165,0.922c0.038,0.246,0.065,0.494,0.097,0.741c0.042,0.319,0.089,0.636,0.122,0.957
		c0.03,0.293,0.046,0.59,0.069,0.885c0.022,0.277,0.049,0.551,0.064,0.83c0.029,0.578,0.045,1.158,0.045,1.74
		s-0.015,1.162-0.045,1.74c-0.014,0.279-0.042,0.555-0.064,0.833c-0.023,0.294-0.039,0.589-0.069,0.881
		c-0.033,0.322-0.08,0.641-0.123,0.961c-0.032,0.246-0.059,0.492-0.097,0.736c-0.049,0.312-0.109,0.618-0.166,0.926
		c-0.046,0.254-0.089,0.509-0.141,0.762c-0.058,0.279-0.127,0.555-0.192,0.832c-0.067,0.282-0.13,0.565-0.204,0.846
		c-0.064,0.241-0.136,0.48-0.205,0.72c-0.091,0.316-0.181,0.633-0.282,0.946c-0.067,0.207-0.139,0.412-0.209,0.617
		c-0.117,0.343-0.236,0.684-0.365,1.024c-0.07,0.185-0.146,0.37-0.219,0.554c-0.139,0.348-0.281,0.694-0.432,1.038
		c-3.382,7.704-9.58,13.897-17.288,17.273c-0.321,0.14-0.645,0.274-0.969,0.404c-0.206,0.083-0.411,0.166-0.619,0.245
		c-0.316,0.12-0.634,0.23-0.952,0.34c-0.227,0.079-0.455,0.158-0.684,0.232c-0.29,0.093-0.582,0.176-0.874,0.261
		c-0.262,0.075-0.522,0.154-0.786,0.224c-0.26,0.068-0.522,0.127-0.783,0.189c-0.295,0.07-0.59,0.143-0.889,0.206
		c-0.236,0.05-0.474,0.088-0.711,0.133c-0.323,0.06-0.646,0.124-0.973,0.175c-0.231,0.036-0.462,0.06-0.694,0.092
		c-0.333,0.044-0.665,0.093-1.001,0.127c-0.276,0.028-0.554,0.043-0.831,0.065c-0.294,0.023-0.587,0.052-0.884,0.068
		c-0.577,0.029-1.157,0.045-1.738,0.045s-1.161-0.015-1.738-0.045c-0.297-0.015-0.591-0.044-0.886-0.068
		c-0.276-0.022-0.553-0.037-0.828-0.065c-0.337-0.034-0.67-0.083-1.005-0.128c-0.231-0.031-0.461-0.056-0.691-0.091
		c-0.328-0.051-0.651-0.114-0.974-0.175c-0.236-0.044-0.474-0.083-0.709-0.132c-0.3-0.063-0.595-0.136-0.89-0.206
		c-0.261-0.061-0.522-0.12-0.78-0.189c-0.265-0.07-0.526-0.149-0.788-0.224c-0.291-0.084-0.583-0.167-0.872-0.26
		c-0.231-0.073-0.458-0.154-0.687-0.233c-0.318-0.109-0.635-0.22-0.951-0.338c-0.208-0.079-0.414-0.163-0.62-0.245
		c-0.323-0.129-0.647-0.263-0.967-0.403c-11.82-5.176-20.102-16.981-20.102-30.689C225.424,96.67,240.447,81.646,258.914,81.646z
		 M307.909,123.185c0.045-0.279,0.092-0.557,0.133-0.838c0.077-0.524,0.141-1.051,0.202-1.578c0.03-0.268,0.064-0.536,0.089-0.805
		c0.055-0.565,0.095-1.132,0.129-1.699c0.015-0.237,0.036-0.472,0.047-0.709c0.039-0.804,0.061-1.61,0.061-2.42
		c0-0.809-0.023-1.616-0.061-2.42c-0.011-0.238-0.032-0.473-0.047-0.71c-0.036-0.567-0.075-1.134-0.129-1.698
		c-0.026-0.269-0.059-0.537-0.091-0.806c-0.059-0.527-0.124-1.053-0.202-1.578c-0.041-0.28-0.086-0.559-0.133-0.838
		c-0.045-0.275-0.081-0.552-0.13-0.826h31.759v17.75h-31.758C307.828,123.737,307.864,123.46,307.909,123.185z M355.705,136.001
		v-3.906V98.177v-3.905c0-2.674,2.176-4.851,4.851-4.851h46.075v51.431h-46.075C357.882,140.852,355.705,138.675,355.705,136.001z
		 M446.512,136.001c0,2.674-2.176,4.851-4.851,4.851h-18.863V89.421h18.863c2.674,0,4.851,2.176,4.851,4.851V136.001z"/>
	<path style="fill:#231F20;" d="M258.914,315.838c-12.913,0-23.421,10.506-23.421,23.42s10.506,23.422,23.421,23.422
		c12.914,0,23.421-10.506,23.421-23.422C282.334,326.344,271.828,315.838,258.914,315.838z M258.914,346.511
		c-3.999,0-7.252-3.254-7.252-7.253c0-3.999,3.253-7.252,7.252-7.252c3.999,0,7.252,3.253,7.252,7.252
		C266.166,343.257,262.913,346.511,258.914,346.511z"/>
	<path style="fill:#231F20;" d="M258.914,138.557c12.913,0,23.421-10.506,23.421-23.422c0-12.913-10.506-23.419-23.421-23.419
		c-12.914,0-23.421,10.506-23.421,23.419C235.494,128.051,246,138.557,258.914,138.557z M258.914,107.884
		c3.999,0,7.252,3.253,7.252,7.251c0,3.999-3.253,7.253-7.252,7.253c-3.999,0-7.252-3.254-7.252-7.253
		C251.663,111.136,254.915,107.884,258.914,107.884z"/>
</g>
<g>
</g>
<g>
</g>
<g>
</g>
<g>
</g>
<g>
</g>
<g>
</g>
<g>
</g>
<g>
</g>
<g>
</g>
<g>
</g>
<g>
</g>
<g>
</g>
<g>
</g>
<g>
</g>
<g>
</g>
</svg>